<svg width="24" height="24" viewBox="0 0 24 24" fill="none" xmlns="http://www.w3.org/2000/svg">
<path d="M2.99989 22.0002H6.99989C7.1315 22.0009 7.26196 21.9757 7.3838 21.926C7.50564 21.8762 7.61645 21.8029 7.70989 21.7102L19.7099 9.71018C19.8036 9.61722 19.878 9.50662 19.9288 9.38476C19.9796 9.2629 20.0057 9.1322 20.0057 9.00018C20.0057 8.86817 19.9796 8.73747 19.9288 8.61561C19.878 8.49375 19.8036 8.38315 19.7099 8.29018L15.7099 4.29018C15.6169 4.19645 15.5063 4.12206 15.3845 4.07129C15.2626 4.02052 15.1319 3.99438 14.9999 3.99438C14.8679 3.99438 14.7372 4.02052 14.6153 4.07129C14.4935 4.12206 14.3829 4.19645 14.2899 4.29018L2.28989 16.2902C2.19721 16.3836 2.12389 16.4944 2.07412 16.6163C2.02436 16.7381 1.99913 16.8686 1.99989 17.0002V21.0002C1.99989 21.2654 2.10525 21.5198 2.29279 21.7073C2.48032 21.8948 2.73468 22.0002 2.99989 22.0002ZM3.99989 17.4102L14.9999 6.41018L17.5899 9.00018L6.58989 20.0002H3.99989V17.4102Z" fill="white"/>
<path d="M17.7101 2.28997C17.6168 2.19673 17.5061 2.12277 17.3843 2.07231C17.2625 2.02185 17.1319 1.99588 17.0001 1.99588C16.7338 1.99588 16.4784 2.10167 16.2901 2.28997C16.1018 2.47828 15.996 2.73367 15.996 2.99997C15.996 3.26627 16.1018 3.52167 16.2901 3.70997L20.2901 7.70997C20.383 7.8037 20.4936 7.8781 20.6155 7.92886C20.7373 7.97963 20.868 8.00577 21.0001 8.00577C21.1321 8.00577 21.2628 7.97963 21.3846 7.92886C21.5065 7.8781 21.6171 7.8037 21.7101 7.70997C21.8038 7.61701 21.8782 7.50641 21.929 7.38455C21.9797 7.26269 22.0059 7.13199 22.0059 6.99997C22.0059 6.86796 21.9797 6.73726 21.929 6.6154C21.8782 6.49354 21.8038 6.38294 21.7101 6.28997L17.7101 2.28997Z" fill="white"/>
</svg>
